<svg xmlns="http://www.w3.org/2000/svg" xmlns:xlink="http://www.w3.org/1999/xlink" version="1.1" class="marks" width="410" height="400" viewBox="0 0 410 400"><g fill="none" stroke-miterlimit="10" transform="translate(55,55)"><g class="mark-group role-frame root" role="graphics-object" aria-roledescription="group mark container"><g transform="translate(0,0)"><path class="background" aria-hidden="true" d="M0,0h300v300h-300Z"/><g><g class="mark-symbol role-mark marks" role="graphics-object" aria-roledescription="symbol mark container"><path aria-label="az: 40.8; alt: 17; star: Deneb; magnitude: 1.25; constellation: Cygnus" role="graphics-symbol" aria-roledescription="point" transform="translate(0.917431192660672,112.84403669724767)" d="M0,25L30,40L25,5L50,-15L15,-20L0,-50L-15,-20L-50,-15L-25,5L-30,40L0,25Z" fill="#CB3C33" stroke-width="2" opacity="1"/><path aria-label="az: 63.1; alt: 29.3; star: Vega; magnitude: 0; constellation: Lyra" role="graphics-symbol" aria-roledescription="point" transform="translate(205.50458715596346,0)" d="M0,25L30,40L25,5L50,-15L15,-20L0,-50L-15,-20L-50,-15L-25,5L-30,40L0,25Z" fill="#389826" stroke-width="2" opacity="1"/><path aria-label="az: 73.3; alt: −3.4; star: Altair; magnitude: 0.75; constellation: Aquila" role="graphics-symbol" aria-roledescription="point" transform="translate(299.0825688073395,299.99999999999994)" d="M0,25L30,40L25,5L50,-15L15,-20L0,-50L-15,-20L-50,-15L-25,5L-30,40L0,25Z" fill="#9558B2" stroke-width="2" opacity="1"/><path aria-label="az: 63.9; alt: 13.8; star: Albireo; magnitude: 3.05; constellation: Cygnus" role="graphics-symbol" aria-roledescription="point" transform="translate(212.8440366972477,142.20183486238528)" d="M0,5.302L6.362,8.483L5.302,1.06L10.604,-3.181L3.181,-4.241L0,-10.604L-3.181,-4.241L-10.604,-3.181L-5.302,1.06L-6.362,8.483L0,5.302Z" fill="#4063D8" stroke-width="2" opacity="1"/><path aria-label="az: 47.6; alt: 15.45; star: Sadir; magnitude: 2.2; constellation: Cygnus" role="graphics-symbol" aria-roledescription="point" transform="translate(63.30275229357812,127.06422018348624)" d="M0,7.071L8.485,11.314L7.071,1.414L14.142,-4.243L4.243,-5.657L0,-14.142L-4.243,-5.657L-14.142,-4.243L-7.071,1.414L-8.485,11.314L0,7.071Z" fill="#4063D8" stroke-width="2" opacity="1"/><path aria-label="az: 49.2; alt: 23.72; star: Fawaris; magnitude: 2.9; constellation: Cygnus" role="graphics-symbol" aria-roledescription="point" transform="translate(77.98165137614694,51.1926605504587)" d="M0,5.611L6.734,8.978L5.611,1.122L11.223,-3.367L3.367,-4.489L0,-11.223L-3.367,-4.489L-11.223,-3.367L-5.611,1.122L-6.734,8.978L0,5.611Z" fill="#4063D8" stroke-width="2" opacity="1"/><path aria-label="az: 48.6; alt: 5.72; star: Aljanah; magnitude: 2.45; constellation: Cygnus" role="graphics-symbol" aria-roledescription="point" transform="translate(72.47706422018365,216.33027522935777)" d="M0,6.541L7.849,10.466L6.541,1.308L13.082,-3.925L3.925,-5.233L0,-13.082L-3.925,-5.233L-13.082,-3.925L-6.541,1.308L-7.849,10.466L0,6.541Z" fill="#4063D8" stroke-width="2" opacity="1"/><path aria-label="az: 54.6; alt: 15.1; star: η Cygni; magnitude: 3.85; constellation: Cygnus" role="graphics-symbol" aria-roledescription="point" transform="translate(127.52293577981658,130.27522935779817)" d="M0,3.536L4.243,5.657L3.536,0.707L7.071,-2.121L2.121,-2.828L0,-7.071L-2.121,-2.828L-7.071,-2.121L-3.536,0.707L-4.243,5.657L0,3.536Z" fill="#4063D8" stroke-width="2" opacity="1"/></g></g><path class="foreground" aria-hidden="true" d="" display="none"/></g></g></g></svg>