<svg xmlns="http://www.w3.org/2000/svg" xmlns:xlink="http://www.w3.org/1999/xlink" version="1.1" class="marks" width="554" height="531" viewBox="0 0 554 531"><g fill="none" stroke-miterlimit="10" transform="translate(127,128)"><g class="mark-group role-frame root" role="graphics-object" aria-roledescription="group mark container"><g transform="translate(0,0)"><path class="background" aria-hidden="true" d="M0,0h300v300h-300Z"/><g><g class="mark-symbol role-mark marks" role="graphics-object" aria-roledescription="symbol mark container"><path aria-label="az: 40.8; alt: 17; star: Deneb" role="graphics-symbol" aria-roledescription="point" transform="translate(0.917431192660672,112.84403669724767)" d="M0,61.237L73.485,97.98L61.237,12.247L122.474,-36.742L36.742,-48.99L0,-122.474L-36.742,-48.99L-122.474,-36.742L-61.237,12.247L-73.485,97.98L0,61.237Z" fill="#CB3C33" stroke-width="2" opacity="1"/><path aria-label="az: 63.1; alt: 29.3; star: Vega" role="graphics-symbol" aria-roledescription="point" transform="translate(205.50458715596346,0)" d="M0,61.237L73.485,97.98L61.237,12.247L122.474,-36.742L36.742,-48.99L0,-122.474L-36.742,-48.99L-122.474,-36.742L-61.237,12.247L-73.485,97.98L0,61.237Z" fill="#389826" stroke-width="2" opacity="1"/><path aria-label="az: 73.3; alt: −3.4; star: Altair" role="graphics-symbol" aria-roledescription="point" transform="translate(299.0825688073395,299.99999999999994)" d="M0,61.237L73.485,97.98L61.237,12.247L122.474,-36.742L36.742,-48.99L0,-122.474L-36.742,-48.99L-122.474,-36.742L-61.237,12.247L-73.485,97.98L0,61.237Z" fill="#9558B2" stroke-width="2" opacity="1"/></g></g><path class="foreground" aria-hidden="true" d="" display="none"/></g></g></g></svg>