<svg xmlns="http://www.w3.org/2000/svg" xmlns:xlink="http://www.w3.org/1999/xlink" version="1.1" class="marks" width="410" height="400" viewBox="0 0 410 400"><g fill="none" stroke-miterlimit="10" transform="translate(55,55)"><g class="mark-group role-frame root" role="graphics-object" aria-roledescription="group mark container"><g transform="translate(0,0)"><path class="background" aria-hidden="true" d="M0,0h300v300h-300Z" stroke=""/><g><g class="mark-symbol role-mark layer_0_marks" role="graphics-object" aria-roledescription="symbol mark container"><path aria-label="x: 0.7; y: 0.5; magnitude: 3.05; star: Albireo; constellation: Cygnus" role="graphics-symbol" aria-roledescription="point" transform="translate(210,150)" d="M0,6.312L7.575,10.1L6.312,1.262L12.625,-3.787L3.787,-5.05L0,-12.625L-3.787,-5.05L-12.625,-3.787L-6.312,1.262L-7.575,10.1L0,6.312Z" fill="#4063D8" stroke-width="2" opacity="0.7"/><path aria-label="x: 0.22; y: 0.53; magnitude: 2.23; star: γ Cygni; constellation: Cygnus" role="graphics-symbol" aria-roledescription="point" transform="translate(66,141)" d="M0,7.371L8.846,11.794L7.371,1.474L14.743,-4.423L4.423,-5.897L0,-14.743L-4.423,-5.897L-14.743,-4.423L-7.371,1.474L-8.846,11.794L0,7.371Z" fill="#4063D8" stroke-width="2" opacity="0.7"/><path aria-label="x: 0.27; y: 0.275; magnitude: 2.48; star: ε Cygni; constellation: Cygnus" role="graphics-symbol" aria-roledescription="point" transform="translate(81,217.5)" d="M0,7.065L8.478,11.305L7.065,1.413L14.131,-4.239L4.239,-5.652L0,-14.131L-4.239,-5.652L-14.131,-4.239L-7.065,1.413L-8.478,11.305L0,7.065Z" fill="#4063D8" stroke-width="2" opacity="0.7"/><path aria-label="x: 0.27; y: 0.8; magnitude: 2.86; star: δ Cygni; constellation: Cygnus" role="graphics-symbol" aria-roledescription="point" transform="translate(81,59.999999999999986)" d="M0,6.573L7.888,10.517L6.573,1.315L13.146,-3.944L3.944,-5.258L0,-13.146L-3.944,-5.258L-13.146,-3.944L-6.573,1.315L-7.888,10.517L0,6.573Z" fill="#4063D8" stroke-width="2" opacity="0.7"/><path aria-label="x: 0.45; y: 0.54; magnitude: 3.89; star: η Cygni; constellation: Cygnus" role="graphics-symbol" aria-roledescription="point" transform="translate(135,138)" d="M0,5L6,8L5,1L10,-3L3,-4L0,-10L-3,-4L-10,-3L-5,1L-6,8L0,5Z" fill="#4063D8" stroke-width="2" opacity="0.7"/></g><g class="mark-symbol role-mark layer_1_marks" role="graphics-object" aria-roledescription="symbol mark container"><path aria-label="x: 0; y: 0.55; star: Deneb; constellation: Cygnus; magnitude: 1.25" role="graphics-symbol" aria-roledescription="point" transform="translate(0,135)" d="M0,25L30,40L25,5L50,-15L15,-20L0,-50L-15,-20L-50,-15L-25,5L-30,40L0,25Z" fill="#CB3C33" stroke-width="2" opacity="0.7"/><path aria-label="x: 0.65; y: 1; star: Vega; constellation: Lyra; magnitude: 0.03" role="graphics-symbol" aria-roledescription="point" transform="translate(195,0)" d="M0,25L30,40L25,5L50,-15L15,-20L0,-50L-15,-20L-50,-15L-25,5L-30,40L0,25Z" fill="#389826" stroke-width="2" opacity="0.7"/><path aria-label="x: 1; y: 0; star: Altair; constellation: Aquila; magnitude: 0.77" role="graphics-symbol" aria-roledescription="point" transform="translate(300,300)" d="M0,25L30,40L25,5L50,-15L15,-20L0,-50L-15,-20L-50,-15L-25,5L-30,40L0,25Z" fill="#9558B2" stroke-width="2" opacity="0.7"/><path aria-label="x: 0.7; y: 0.5; star: Albireo; constellation: Cygnus; magnitude: 3.05" role="graphics-symbol" aria-roledescription="point" transform="translate(210,150)" d="M0,25L30,40L25,5L50,-15L15,-20L0,-50L-15,-20L-50,-15L-25,5L-30,40L0,25Z" stroke-width="2" opacity="0.7"/><path aria-label="x: 0.22; y: 0.53; star: γ Cygni; constellation: Cygnus; magnitude: 2.23" role="graphics-symbol" aria-roledescription="point" transform="translate(66,141)" d="M0,25L30,40L25,5L50,-15L15,-20L0,-50L-15,-20L-50,-15L-25,5L-30,40L0,25Z" stroke-width="2" opacity="0.7"/><path aria-label="x: 0.27; y: 0.275; star: ε Cygni; constellation: Cygnus; magnitude: 2.48" role="graphics-symbol" aria-roledescription="point" transform="translate(81,217.5)" d="M0,25L30,40L25,5L50,-15L15,-20L0,-50L-15,-20L-50,-15L-25,5L-30,40L0,25Z" stroke-width="2" opacity="0.7"/><path aria-label="x: 0.27; y: 0.8; star: δ Cygni; constellation: Cygnus; magnitude: 2.86" role="graphics-symbol" aria-roledescription="point" transform="translate(81,59.999999999999986)" d="M0,25L30,40L25,5L50,-15L15,-20L0,-50L-15,-20L-50,-15L-25,5L-30,40L0,25Z" stroke-width="2" opacity="0.7"/><path aria-label="x: 0.45; y: 0.54; star: η Cygni; constellation: Cygnus; magnitude: 3.89" role="graphics-symbol" aria-roledescription="point" transform="translate(135,138)" d="M0,25L30,40L25,5L50,-15L15,-20L0,-50L-15,-20L-50,-15L-25,5L-30,40L0,25Z" stroke-width="2" opacity="0.7"/></g></g><path class="foreground" aria-hidden="true" d="" display="none"/></g></g></g></svg>