<svg xmlns="http://www.w3.org/2000/svg" xmlns:xlink="http://www.w3.org/1999/xlink" version="1.1" class="marks" width="410" height="400" viewBox="0 0 410 400"><g fill="none" stroke-miterlimit="10" transform="translate(55,55)"><g class="mark-group role-frame root" role="graphics-object" aria-roledescription="group mark container"><g transform="translate(0,0)"><path class="background" aria-hidden="true" d="M0,0h300v300h-300Z" stroke=""/><g><g class="mark-symbol role-mark layer_0_marks" role="graphics-object" aria-roledescription="symbol mark container"><path aria-label="x: 0.2; y: 0.525" role="graphics-symbol" aria-roledescription="point" transform="translate(60,142.5)" d="M0,7.906L9.487,12.649L7.906,1.581L15.811,-4.743L4.743,-6.325L0,-15.811L-4.743,-6.325L-15.811,-4.743L-7.906,1.581L-9.487,12.649L0,7.906Z" fill="#4063D8" stroke-width="2" opacity="0.7"/><path aria-label="x: 0.25; y: 0.275" role="graphics-symbol" aria-roledescription="point" transform="translate(75,217.5)" d="M0,7.906L9.487,12.649L7.906,1.581L15.811,-4.743L4.743,-6.325L0,-15.811L-4.743,-6.325L-15.811,-4.743L-7.906,1.581L-9.487,12.649L0,7.906Z" fill="#4063D8" stroke-width="2" opacity="0.7"/><path aria-label="x: 0.25; y: 0.8" role="graphics-symbol" aria-roledescription="point" transform="translate(75,59.999999999999986)" d="M0,7.906L9.487,12.649L7.906,1.581L15.811,-4.743L4.743,-6.325L0,-15.811L-4.743,-6.325L-15.811,-4.743L-7.906,1.581L-9.487,12.649L0,7.906Z" fill="#4063D8" stroke-width="2" opacity="0.7"/><path aria-label="x: 0.68; y: 0.5" role="graphics-symbol" aria-roledescription="point" transform="translate(204.00000000000003,150)" d="M0,7.906L9.487,12.649L7.906,1.581L15.811,-4.743L4.743,-6.325L0,-15.811L-4.743,-6.325L-15.811,-4.743L-7.906,1.581L-9.487,12.649L0,7.906Z" fill="#4063D8" stroke-width="2" opacity="0.7"/></g><g class="mark-symbol role-mark layer_1_marks" role="graphics-object" aria-roledescription="symbol mark container"><path aria-label="x: 0; y: 0.55; star: Deneb" role="graphics-symbol" aria-roledescription="point" transform="translate(0,135)" d="M0,25L30,40L25,5L50,-15L15,-20L0,-50L-15,-20L-50,-15L-25,5L-30,40L0,25Z" fill="#CB3C33" stroke-width="2" opacity="0.7"/><path aria-label="x: 0.65; y: 1; star: Vega" role="graphics-symbol" aria-roledescription="point" transform="translate(195,0)" d="M0,25L30,40L25,5L50,-15L15,-20L0,-50L-15,-20L-50,-15L-25,5L-30,40L0,25Z" fill="#389826" stroke-width="2" opacity="0.7"/><path aria-label="x: 1; y: 0; star: Altair" role="graphics-symbol" aria-roledescription="point" transform="translate(300,300)" d="M0,25L30,40L25,5L50,-15L15,-20L0,-50L-15,-20L-50,-15L-25,5L-30,40L0,25Z" fill="#9558B2" stroke-width="2" opacity="0.7"/><path aria-label="x: 0.2; y: 0.525; star: a" role="graphics-symbol" aria-roledescription="point" transform="translate(60,142.5)" d="M0,25L30,40L25,5L50,-15L15,-20L0,-50L-15,-20L-50,-15L-25,5L-30,40L0,25Z" stroke-width="2" opacity="0.7"/><path aria-label="x: 0.25; y: 0.275; star: b" role="graphics-symbol" aria-roledescription="point" transform="translate(75,217.5)" d="M0,25L30,40L25,5L50,-15L15,-20L0,-50L-15,-20L-50,-15L-25,5L-30,40L0,25Z" stroke-width="2" opacity="0.7"/><path aria-label="x: 0.25; y: 0.8; star: c" role="graphics-symbol" aria-roledescription="point" transform="translate(75,59.999999999999986)" d="M0,25L30,40L25,5L50,-15L15,-20L0,-50L-15,-20L-50,-15L-25,5L-30,40L0,25Z" stroke-width="2" opacity="0.7"/><path aria-label="x: 0.68; y: 0.5; star: d" role="graphics-symbol" aria-roledescription="point" transform="translate(204.00000000000003,150)" d="M0,25L30,40L25,5L50,-15L15,-20L0,-50L-15,-20L-50,-15L-25,5L-30,40L0,25Z" stroke-width="2" opacity="0.7"/></g></g><path class="foreground" aria-hidden="true" d="" display="none"/></g></g></g></svg>